# xmcd CD database file
#
# Track frame offsets:
#	150
#	22500
#	43312
#	65647
#	87442
#	111412
#	131812
#	153277
#	179412
#	210285
#	229215
#	244952
#
# Disc length: 3541 seconds
#
# Revision: 0
# Processed by: cddbd v1.5.1PL0 Copyright (c) Steve Scherf et al.
# Submitted via: CDex 1.51
#
DISCID=a40dd30c
DTITLE=北村英治カルテット・他 - SWINGIN' STAND
DYEAR=1900
DGENRE=Jazz
TTITLE0=マイ・ファニー・バレンタイン
TTITLE1=キュート
TTITLE2=ビーズと腕輪
TTITLE3=ひばり
TTITLE4=シュッド・アイ
TTITLE5=オン・ザ・サニー・サイド・オブ・ザ・ストリート
TTITLE6=トゥルー・ラブ
TTITLE7=東経2度、西経3度
TTITLE8=A列車で行こう
TTITLE9=ボディ・アンド・ソウル
TTITLE10=アイ・カヴァー・ウオーターフロント
TTITLE11=引潮
EXTD=
EXTT0=
EXTT1=
EXTT2=
EXTT3=
EXTT4=
EXTT5=
EXTT6=
EXTT7=
EXTT8=
EXTT9=
EXTT10=
EXTT11=
PLAYORDER=
